<svg width="20" height="20" xmlns="http://www.w3.org/2000/svg" xmlns:xlink="http://www.w3.org/1999/xlink" xmlns:svgjs="http://svgjs.com/svgjs" fill="#0f1d5b"><svg xmlns="http://www.w3.org/2000/svg" width="20" height="20"><path paint-order="stroke fill markers" fill-rule="evenodd" d="M18.764 14.81A9.94 9.94 0 0 0 19.999 10a9.932 9.932 0 0 0-1.306-4.934.458.458 0 0 0-.064-.111 10.114 10.114 0 0 0-1.356-1.807.406.406 0 0 0-.094-.1A10.042 10.042 0 0 0 14.097.882a.421.421 0 0 0-.105-.047A9.94 9.94 0 0 0 10 0a9.954 9.954 0 0 0-6.381 2.307.428.428 0 0 0-.094.081 9.978 9.978 0 0 0-3.52 7.404C.005 9.862 0 9.93 0 10c0 5.514 4.486 10 10 10 .052 0 .105-.003.157-.004l.025.002c.01 0 .02-.003.031-.003 3.64-.077 6.806-2.107 8.492-5.082.002-.004.006-.006.009-.01a.416.416 0 0 0 .05-.092zm-.525-.832c-.237-.245-.381-.496-.425-.75a1.153 1.153 0 0 1 .027-.476c.048-.23.107-.518-.058-.887-.174-.39-.47-.581-.688-.72-.202-.13-.27-.181-.297-.29-.02-.083-.006-.15.022-.263.038-.155.109-.445-.11-.704-.36-.423-1.004-.243-1.52-.098-.504.141-.786.291-1.012.412-.2.106-.31.164-.512.189-.028.003-.696.078-1.057-.278-.437-.432-.222-1.37-.065-2.055.132-.571.267-1.162.785-1.666.418-.406 1.08-.83 1.568-.689.175.05.31.168.454.292.22.19.521.45.968.367.289-.053.448-.222.565-.345.063-.067.122-.13.212-.192.23-.159.548-.221.94-.197A9.094 9.094 0 0 1 19.15 10a9.09 9.09 0 0 1-.911 3.978zm-5.947 4.881c.168-.352.312-.709.425-1.07.12-.389.168-.652.207-.863.048-.265.075-.41.225-.675.122-.215.245-.364.363-.508.21-.255.427-.518.483-.986.029-.244-.006-.386-.04-.523a2.156 2.156 0 0 1-.066-.453 2.744 2.744 0 0 1 .057-.772c.043-.225.092-.48-.1-.75-.267-.373-.681-.356-1.08-.34-.304.013-.647.027-1.076-.077a1.287 1.287 0 0 1-.457-.192c-.148-.089-.349-.21-.75-.368-.53-.207-1.63-.637-2.885-.458-.461.066-.696.18-.885.271a1.307 1.307 0 0 1-.596.159c-.265.017-1.182.027-1.853-.578-.127-.115-.467-.422-.44-.591.036-.233.75-.499 1.134-.641.367-.137.543-.16.7-.18.16-.02.325-.042.567-.163.658-.327.85-.864 1.035-1.383.145-.404.308-.863.724-1.356.342-.406.711-.666 1.007-.875.398-.28.809-.57.707-1.07-.094-.46-.54-.635-.9-.775-.064-.025-.152-.06-.225-.093.044-.035.094-.07.135-.1.279-.201.662-.477.674-.957.013-.56-.521-1.033-1.025-1.234a1.604 1.604 0 0 0-.653-.116 9.143 9.143 0 0 1 5.026.124c-.13.112-.232.241-.3.388-.158.341-.087.636-.03.874.045.19.085.355.036.588-.047.225-.148.375-.245.52-.123.182-.308.458-.16.788.165.366.585.467 1.063.467.193 0 .398-.017.599-.04 1.034-.116 2.086-.433 3.13-.939.249.279.48.573.694.88a2.04 2.04 0 0 0-.905.334c-.162.112-.268.225-.347.307a.53.53 0 0 1-.1.093c-.04.009-.134-.067-.26-.175-.176-.153-.42-.362-.772-.464-1.056-.306-2.101.609-2.398.897-.696.678-.875 1.458-1.018 2.084-.19.83-.48 2.085.295 2.85.624.616 1.571.538 1.755.516.36-.043.579-.16.81-.282.2-.107.427-.227.841-.344a4.43 4.43 0 0 1 .554-.128 1.242 1.242 0 0 0 0 .578c.112.448.431.653.665.803.19.122.303.199.37.35.051.114.04.18.001.369-.038.189-.091.447-.031.793.085.496.37.957.841 1.376a9.185 9.185 0 0 1-5.526 4.11zM4.053 3.054c.415-.088.83-.19 1.237-.308.553-.162.997-.323 1.354-.453.75-.273 1.066-.378 1.398-.245.29.116.492.344.49.424-.011.064-.228.22-.321.287-.26.188-.618.445-.579.88.043.476.513.66.857.795.09.035.226.088.314.136-.078.065-.198.15-.3.222-.32.225-.755.532-1.169 1.022-.515.611-.714 1.17-.874 1.619-.182.508-.276.74-.613.907-.114.057-.168.064-.3.081-.18.024-.426.056-.885.226-.696.259-1.564.582-1.678 1.306-.099.624.428 1.099.712 1.355.21.19.435.335.66.447-1.022-.235-1.624-.385-1.918-.53-.613-.303-1.144-.831-1.58-1.568a9.128 9.128 0 0 1 3.195-6.603zm8.987 10.775c.018.311.06.482.09.606.025.103.032.13.021.221-.025.212-.104.315-.295.546-.129.157-.288.351-.446.63-.221.389-.268.645-.322.942-.037.198-.077.423-.183.764a7.29 7.29 0 0 1-.687 1.529c-.23.03-.464.054-.7.067l-.245-1.062c-.39-1.676-.509-2.182-1.033-2.557-.27-.194-.484-.223-.655-.247a.9.9 0 0 1-.444-.161c-.54-.347-.764-.906-.804-1.015-.086-.235-.086-.376-.086-.526 0-.184 0-.413-.16-.693-.246-.427-.633-.61-1.213-.765a3.7 3.7 0 0 0 .294-.006c.477-.032.708-.143.912-.241.163-.08.304-.148.635-.195 1.032-.147 1.957.214 2.453.407.335.131.487.223.62.304.171.104.333.202.697.29.546.133.988.115 1.312.102.107-.005.244-.01.326-.003l-.016.081c-.038.2-.097.504-.07.982zM.925 11.147c.344.354.723.636 1.137.84.446.22 1.183.387 2.798.754l.165.037c.843.191 1.19.278 1.328.517.046.08.047.123.047.272 0 .186 0 .441.139.817.078.215.392.956 1.142 1.437.358.23.606.264.788.29.125.017.176.024.277.096.243.173.335.495.703 2.073l.198.861C5.15 18.97 1.476 15.538.925 11.147zM13.226 2.33c-.047-.196-.054-.254-.025-.318.063-.136.282-.252.61-.327.876.403 1.679.939 2.38 1.584-.87.393-1.74.642-2.593.738-.32.036-.525.038-.653.03.111-.17.252-.41.322-.746.089-.42.013-.733-.04-.961z"/></svg></svg>