<svg version="1.2" baseProfile="tiny-ps" xmlns="http://www.w3.org/2000/svg" viewBox="0 0 60 60" width="60" height="60">
	<title>Сгруппировать 356-svg</title>
	<style>
		tspan { white-space:pre }
		.shp0 { fill: #0f1d5b } 
	</style>
	<g id="Сгруппировать 356">
		<g id="Layer 2">
			<g id="Layer 1-2">
				<path id="Контур 238" fill-rule="evenodd" class="shp0" d="M33.22 41.03L25.22 41.03C24.86 41.03 24.58 40.75 24.58 40.39L24.58 38.93C24.58 38.63 24.78 38.37 25.07 38.31L25.87 38.12C25.89 36.73 25.9 35.27 25.9 34.38L25.9 33C25.9 31.67 25.88 30.84 25.83 29.94L24.79 29.76C24.48 29.71 24.26 29.44 24.26 29.12L24.26 27.96C24.26 27.68 24.45 27.43 24.72 27.35L31.37 25.38C31.55 25.33 31.74 25.35 31.89 25.45L32.41 25.77C32.6 25.89 32.72 26.1 32.71 26.32L32.63 30.58L32.63 34.38C32.63 35.28 32.63 36.76 32.65 38.16L33.35 38.3C33.65 38.37 33.86 38.63 33.86 38.94L33.86 40.41C33.85 40.75 33.57 41.03 33.22 41.03ZM25.86 39.75L32.58 39.75L32.58 39.46L31.89 39.31C31.6 39.25 31.39 39 31.38 38.7C31.35 37.15 31.34 35.41 31.34 34.38L31.34 30.57L31.43 26.69L25.55 28.44L25.55 28.59L26.56 28.76C26.86 28.81 27.08 29.06 27.1 29.36C27.15 30.49 27.18 31.4 27.18 33L27.18 34.38C27.18 35.7 27.17 37.38 27.15 38.65C27.14 38.94 26.94 39.19 26.65 39.26L25.87 39.44L25.86 39.75Z" />
				<path id="Контур 239" fill-rule="evenodd" class="shp0" d="M29.21 24.93C27.37 24.93 25.93 23.57 25.93 21.83C25.93 20.09 27.37 18.73 29.21 18.73C31.04 18.73 32.48 20.09 32.48 21.83C32.48 23.57 31.04 24.93 29.21 24.93ZM29.21 20.01C28.07 20.01 27.21 20.79 27.21 21.83C27.21 22.87 28.07 23.65 29.21 23.65C30.34 23.65 31.2 22.87 31.2 21.83C31.2 20.79 30.35 20.01 29.21 20.01Z" />
				<path id="Контур 240" fill-rule="evenodd" class="shp0" d="M29.06 44.94C20.74 44.94 14 38.2 14 29.88C14 21.56 20.74 14.82 29.06 14.82C37.38 14.82 44.13 21.56 44.13 29.88C44.12 38.2 37.38 44.93 29.06 44.94ZM29.06 16.1C21.45 16.1 15.28 22.27 15.28 29.88C15.28 37.49 21.45 43.66 29.06 43.66C36.68 43.66 42.85 37.49 42.85 29.88C42.84 22.27 36.67 16.11 29.06 16.1Z" />
			</g>
		</g>
	</g>
</svg>