<svg width="15" height="15" xmlns="http://www.w3.org/2000/svg" xmlns:xlink="http://www.w3.org/1999/xlink" xmlns:svgjs="http://svgjs.com/svgjs" viewBox="0 0.002 15 14.995" fill="#fff"><svg xmlns="http://www.w3.org/2000/svg" width="15" height="15" viewBox="0 0 14.1 14.096"><path paint-order="stroke fill markers" fill-rule="evenodd" d="M10.544 9.328a5.266 5.266 0 0 0 0-6.146l1.706-1.704A.86.86 0 1 0 11.054.242l-.02.02-7.828 7.829A3.56 3.56 0 0 1 6.62 2.716a.86.86 0 1 0 .174-1.71 5.273 5.273 0 0 0-4.83 8.324L.263 11.034a.86.86 0 0 0 1.195 1.237l.02-.02L3.74 9.984l5.567-5.563a3.56 3.56 0 0 1-3.05 5.388.86.86 0 1 0 0 1.72 5.253 5.253 0 0 0 3.072-.99l3.282 3.282a.86.86 0 1 0 1.215-1.215l-3.282-3.28z"/></svg></svg>