<svg width="25" height="24" xmlns="http://www.w3.org/2000/svg" xmlns:xlink="http://www.w3.org/1999/xlink" xmlns:svgjs="http://svgjs.com/svgjs" viewBox="0.5 0 24 24" fill="#0f1d5b"><svg xmlns="http://www.w3.org/2000/svg" width="25" height="24" viewBox="1 0 24 24"><path paint-order="stroke fill markers" fill-rule="evenodd" d="M24.538 21.311l-6.013-6.014a9.612 9.612 0 0 0 1.814-5.628c0-5.331-4.338-9.67-9.67-9.67C5.338 0 1 4.339 1 9.67c0 5.332 4.339 9.67 9.67 9.67a9.614 9.614 0 0 0 5.628-1.814l6.013 6.014a1.571 1.571 0 0 0 2.228 0 1.575 1.575 0 0 0 0-2.228zM4.15 9.669a6.526 6.526 0 0 1 6.52-6.519 6.527 6.527 0 0 1 6.519 6.52 6.527 6.527 0 0 1-6.52 6.519 6.526 6.526 0 0 1-6.519-6.52z"/></svg></svg>