<svg version="1.2" baseProfile="tiny-ps" xmlns="http://www.w3.org/2000/svg" viewBox="0 0 60 60" width="60" height="60">
	<title>Сгруппировать 739</title>
	<style>
		tspan { white-space:pre }
		.shp0 { fill: #0f1d5b } 
	</style>
	<g id="Сгруппировать 739">
		<g id="Сгруппировать 490">
			<g id="Сгруппировать 300">
				<path id="Контур 359" fill-rule="evenodd" class="shp0" d="M38.7 30.02C38.7 31.94 38 33.79 36.72 35.22C35.79 36.27 35.28 37.66 35.28 39.15L35.28 40.44C35.28 40.79 34.99 41.08 34.64 41.08L27.12 41.08C26.77 41.08 26.48 40.79 26.48 40.44L26.48 39.15C26.48 37.69 25.95 36.27 24.97 35.14C23.59 33.55 22.92 31.51 23.08 29.4C23.38 25.57 26.49 22.48 30.33 22.22C32.52 22.06 34.62 22.81 36.22 24.3C37.8 25.78 38.7 27.86 38.7 30.02ZM37.43 30.02C37.43 28.21 36.67 26.47 35.35 25.23C34.01 23.98 32.25 23.36 30.41 23.49C27.21 23.71 24.6 26.29 24.35 29.5C24.22 31.27 24.78 32.98 25.93 34.31C27.11 35.67 27.76 37.39 27.76 39.15L27.76 39.8L34 39.8L34 39.15C34 37.35 34.63 35.66 35.77 34.38C36.84 33.18 37.43 31.63 37.43 30.02Z" />
				<path id="Контур 360" fill-rule="evenodd" class="shp0" d="M35.04 43.3C35.04 44.24 34.28 45 33.34 45L28.09 45C27.16 45 26.39 44.24 26.39 43.3C26.39 42.36 27.16 41.6 28.09 41.6L33.34 41.6C34.28 41.6 35.04 42.36 35.04 43.3ZM33.77 43.3C33.77 43.06 33.57 42.87 33.34 42.87L28.09 42.87C27.86 42.87 27.66 43.06 27.66 43.3C27.66 43.53 27.86 43.73 28.09 43.73L33.34 43.73C33.57 43.73 33.77 43.53 33.77 43.3Z" />
				<path id="Контур 361" class="shp0" d="M29.91 19.12L29.91 15.64C29.91 15.29 30.19 15 30.55 15C30.9 15 31.18 15.29 31.18 15.64L31.18 19.12C31.18 19.48 30.9 19.76 30.55 19.76C30.19 19.76 29.91 19.48 29.91 19.12Z" />
				<path id="Контур 362" class="shp0" d="M20.29 20.1C20.04 19.85 20.04 19.45 20.29 19.2C20.54 18.95 20.94 18.95 21.19 19.2L23.65 21.66C23.9 21.91 23.9 22.31 23.65 22.56C23.53 22.69 23.37 22.75 23.2 22.75C23.04 22.75 22.88 22.69 22.76 22.56L20.29 20.1Z" />
				<path id="Контур 363" class="shp0" d="M20.12 30.06L16.64 30.06C16.28 30.06 16 29.77 16 29.42C16 29.07 16.28 28.78 16.64 28.78L20.12 28.78C20.48 28.78 20.76 29.07 20.76 29.42C20.76 29.77 20.48 30.06 20.12 30.06Z" />
				<path id="Контур 364" class="shp0" d="M23.56 36.31C23.81 36.56 23.81 36.96 23.56 37.21L21.1 39.68C20.97 39.8 20.81 39.86 20.65 39.86C20.48 39.86 20.32 39.8 20.2 39.68C19.95 39.43 19.95 39.03 20.2 38.78L22.66 36.31C22.91 36.06 23.32 36.06 23.56 36.31Z" />
				<path id="Контур 365" class="shp0" d="M40.68 38.87C40.93 39.12 40.93 39.52 40.68 39.77C40.55 39.89 40.39 39.96 40.23 39.96C40.07 39.96 39.9 39.89 39.78 39.77L37.31 37.3C37.06 37.05 37.06 36.65 37.31 36.4C37.56 36.15 37.97 36.15 38.21 36.4L40.68 38.87Z" />
				<path id="Контур 366" class="shp0" d="M44.97 29.55C44.97 29.9 44.68 30.19 44.33 30.19L40.84 30.19C40.49 30.19 40.2 29.9 40.2 29.55C40.2 29.2 40.49 28.91 40.84 28.91L44.33 28.91C44.68 28.91 44.97 29.2 44.97 29.55Z" />
				<path id="Контур 367" class="shp0" d="M37.4 22.66C37.15 22.41 37.15 22 37.4 21.75L39.87 19.29C40.12 19.04 40.52 19.04 40.77 19.29C41.02 19.54 41.02 19.94 40.77 20.19L38.3 22.66C38.18 22.78 38.02 22.84 37.85 22.84C37.69 22.84 37.53 22.78 37.4 22.66Z" />
			</g>
		</g>
	</g>
</svg>