<svg version="1.2" baseProfile="tiny-ps" xmlns="http://www.w3.org/2000/svg" viewBox="0 0 60 60" width="60" height="60">
	<title>Сгруппировать 738</title>
	<style>
		tspan { white-space:pre }
		.shp0 { fill: #0f1d5b } 
	</style>
	<g id="Сгруппировать 738">
		<g id="Сгруппировать 19">
			<path id="Контур 33" class="shp0" d="M32.37 35.19C32.37 35.54 32.08 35.82 31.73 35.82L23.86 35.82C23.51 35.82 23.22 35.54 23.22 35.19C23.22 34.83 23.51 34.55 23.86 34.55L31.73 34.55C32.08 34.55 32.37 34.83 32.37 35.19Z" />
			<path id="Контур 34" class="shp0" d="M32.37 37.1C32.37 37.45 32.08 37.74 31.73 37.74L23.86 37.74C23.51 37.74 23.22 37.45 23.22 37.1C23.22 36.75 23.51 36.46 23.86 36.46L31.73 36.46C32.08 36.46 32.37 36.75 32.37 37.1Z" />
			<path id="Контур 35" class="shp0" d="M29.33 39.01C29.33 39.37 29.05 39.65 28.7 39.65L23.86 39.65C23.51 39.65 23.22 39.37 23.22 39.01C23.22 38.66 23.51 38.37 23.86 38.37L28.7 38.37C29.05 38.37 29.33 38.66 29.33 39.01Z" />
			<path id="Контур 36" fill-rule="evenodd" class="shp0" d="M44.95 39.4L40.84 39.4L40.84 45L19.27 45L19.27 39.4L15 39.4L15 22.71L19.66 22.71L19.66 15L40.34 15L40.34 22.71L44.95 22.71L44.95 39.4ZM20.93 22.71L39.07 22.71L39.07 16.28L20.93 16.28L20.93 22.71ZM39.57 31.69L20.55 31.69L20.55 43.73L39.57 43.73L39.57 31.69ZM43.67 23.98L16.27 23.98L16.27 38.13L19.27 38.13L19.27 30.42L40.84 30.42L40.84 38.13L43.67 38.13L43.67 23.98Z" />
		</g>
	</g>
</svg>