<svg version="1.2" baseProfile="tiny-ps" xmlns="http://www.w3.org/2000/svg" viewBox="0 0 60 60" width="60" height="60">
	<title>Сгруппировать 540</title>
	<style>
		tspan { white-space:pre }
		.shp0 { fill: #0f1d5b } 
	</style>
	<g id="Сгруппировать 540">
		<g id="Layer 2">
			<g id="Layer 1-2">
				<path id="Контур 422" fill-rule="evenodd" class="shp0" d="M23.12 27.6C22.25 26.63 22.25 25.16 23.12 24.18C24.61 22.52 26.96 20.53 29.71 20.53C32.46 20.53 34.82 22.52 36.31 24.18C37.18 25.16 37.18 26.63 36.31 27.6C34.82 29.26 32.46 31.25 29.71 31.25C26.96 31.25 24.62 29.29 23.12 27.6ZM24.11 26.73C25.18 27.94 27.33 29.93 29.71 29.93C32.09 29.93 34.24 27.94 35.32 26.75C35.75 26.28 35.75 25.56 35.32 25.09C34.24 23.89 32.09 21.89 29.71 21.89C27.33 21.89 25.18 23.89 24.11 25.09C23.69 25.56 23.69 26.26 24.11 26.73Z" />
				<path id="Контур 423" class="shp0" d="M27.12 25.91L27.12 25.91C27.12 24.47 28.28 23.31 29.72 23.31C31.15 23.32 32.32 24.48 32.31 25.92C32.31 27.35 31.15 28.51 29.71 28.51C28.28 28.51 27.12 27.35 27.12 25.91Z" />
				<path id="Контур 424" fill-rule="evenodd" class="shp0" d="M45.24 14.66L45.24 38.56C45.24 38.92 44.94 39.22 44.57 39.22L32.81 39.22L32.81 43.91L35.57 43.91C35.93 43.91 36.23 44.21 36.23 44.57C36.23 44.94 35.93 45.24 35.57 45.24L23.66 45.24C23.29 45.24 23 44.94 23 44.57C23 44.21 23.29 43.91 23.66 43.91L26.41 43.91L26.41 39.22L14.66 39.22C14.3 39.22 14 38.92 14 38.56L14 14.66C14 14.3 14.3 14 14.66 14L44.57 14C44.94 14 45.24 14.3 45.24 14.66ZM15.33 15.33L15.33 34.37L43.91 34.37L43.91 15.33L15.33 15.33ZM31.5 39.22L27.74 39.22L27.74 43.91L31.5 43.91L31.5 39.22ZM43.91 37.89L43.91 35.69L15.33 35.69L15.33 37.87L32.16 37.87L43.91 37.89Z" />
			</g>
		</g>
	</g>
</svg>