<svg version="1.2" baseProfile="tiny-ps" xmlns="http://www.w3.org/2000/svg" viewBox="0 0 28 30" width="28" height="30">
	<title>Сгруппировать 568</title>
	<style>
		tspan { white-space:pre }
		.shp0 { fill: #0f1d5b } 
	</style>
	<g id="Сгруппировать 568">
		<g id="Сгруппировать 222">
			<g id="Сгруппировать 224">
				<g id="Сгруппировать 18">
					<path id="Контур 120" fill-rule="evenodd" class="shp0" d="M27.36 24.66C27.36 24.67 27.36 24.67 27.36 24.67C27.36 27.62 24.97 30 22.03 30C19.08 30 16.7 27.61 16.7 24.67C16.7 21.72 19.09 19.34 22.03 19.34C24.97 19.34 27.35 21.72 27.36 24.66ZM22.03 28.78C24.3 28.77 26.14 26.93 26.14 24.66C26.14 22.39 24.3 20.55 22.03 20.55C19.75 20.55 17.91 22.4 17.91 24.67C17.91 26.94 19.76 28.78 22.03 28.78L22.03 28.78Z" />
					<path id="Контур 121" class="shp0" d="M24.71 24.66C24.71 25 24.44 25.27 24.1 25.27L22.64 25.27L22.64 26.74C22.64 27.08 22.37 27.35 22.03 27.35C21.7 27.35 21.42 27.08 21.42 26.74L21.42 25.27L19.95 25.27C19.62 25.27 19.34 25 19.34 24.66C19.34 24.33 19.62 24.06 19.95 24.06L21.42 24.06L21.42 22.59C21.42 22.25 21.7 21.98 22.03 21.98C22.37 21.98 22.64 22.25 22.64 22.59L22.64 24.06L24.1 24.06C24.44 24.06 24.71 24.33 24.71 24.66Z" />
				</g>
				<path id="Контур 122" class="shp0" d="M16.67 29.07C16.67 29.42 16.4 29.7 16.07 29.7L0 29.7L0 29.07C0 23.77 4.02 19.41 9.11 19.17L9.11 17.36C7.28 15.37 6.27 12.73 6.27 9.98L6.27 7.16C6.27 3.2 9.36 0 13.16 0C16.97 0 20.05 3.2 20.05 7.16L20.05 9.98C20.06 12.73 19.04 15.37 17.21 17.36L17.21 19.8C17.21 20.14 16.94 20.43 16.6 20.43C16.26 20.43 15.99 20.14 15.99 19.8L15.99 16.84L16.17 16.66C17.88 14.89 18.84 12.49 18.84 9.98L18.84 7.16C18.84 3.9 16.3 1.26 13.16 1.26C10.03 1.26 7.49 3.9 7.49 7.16L7.49 9.98C7.48 12.48 8.44 14.89 10.15 16.66L10.33 16.84L10.33 20.43L9.53 20.43C5.18 20.43 1.56 23.93 1.24 28.44L16.07 28.44C16.4 28.44 16.67 28.72 16.67 29.07Z" />
			</g>
		</g>
	</g>
</svg>