<svg version="1.2" baseProfile="tiny-ps" xmlns="http://www.w3.org/2000/svg" viewBox="0 0 60 60" width="60" height="60">
	<title>Сгруппировать 531</title>
	<style>
		tspan { white-space:pre }
		.shp0 { fill: #0f1d5b } 
	</style>
	<g id="Сгруппировать 531">
		<g id="Layer 2">
			<g id="Layer 1-2">
				<path id="Контур 399" class="shp0" d="M45.13 35.54C45.19 38.36 43.45 41.47 39.46 41.65L38.94 41.65C38.53 41.65 38.19 41.32 38.19 40.9C38.19 40.49 38.53 40.15 38.94 40.15L39.39 40.15C42.37 40.02 43.68 37.71 43.63 35.55C43.57 33.39 42.13 31.05 39.07 31.05L17.54 31.05L26.83 40.34C27.13 40.64 27.13 41.11 26.83 41.4C26.69 41.54 26.5 41.62 26.3 41.62C26.11 41.62 25.91 41.54 25.77 41.4L15.2 30.83C15.17 30.8 15.13 30.76 15.11 30.72C15.09 30.7 15.08 30.68 15.07 30.66L15.04 30.59C15.01 30.56 15.01 30.54 15.01 30.51C15.01 30.49 15.01 30.47 15.01 30.45C14.99 30.35 14.99 30.25 15.01 30.15C15.01 30.13 15.01 30.11 15.01 30.09C15.02 30.06 15.03 30.04 15.04 30.01L15.07 29.94C15.08 29.92 15.09 29.9 15.11 29.88C15.13 29.84 15.17 29.8 15.2 29.77L25.77 19.2C26.06 18.94 26.49 18.93 26.78 19.19C27.09 19.47 27.11 19.95 26.83 20.25L17.54 29.55L39.07 29.55C42.96 29.55 45.06 32.56 45.13 35.54Z" />
			</g>
		</g>
	</g>
</svg>