<?xml version="1.0" standalone="no"?>
<!DOCTYPE svg PUBLIC "-//W3C//DTD SVG 20010904//EN"
 "http://www.w3.org/TR/2001/REC-SVG-20010904/DTD/svg10.dtd">
 
<svg version="1.0" xmlns="http://www.w3.org/2000/svg"
 width="60" height="60" viewBox="0 0 60.000000 60.000000"
 preserveAspectRatio="xMidYMid meet">
 

<g transform="translate(0.000000,60.000000) scale(0.100000,-0.100000)"
fill="#0f1d5b" stroke="none">

<path d="M249 431 c-20 -16 -24 -28 -23 -70 0 -28 6 -57 12 -63 20 -20 14 -38
-16 -49 -29 -10 -62 -55 -62 -83 0 -14 13 -16 83 -14 l82 2 -75 5 c-68 5 -75
8 -72 26 5 28 29 52 59 60 27 6 27 7 2 92 -12 39 -11 45 7 70 26 35 57 40 83
14 25 -25 28 -88 6 -117 -8 -10 -14 -28 -14 -39 -1 -12 7 -2 19 24 28 60 26
106 -5 136 -29 30 -55 32 -86 6z"/>
<path d="M360 247 c-46 -23 -31 -97 20 -97 48 0 66 69 25 96 -16 11 -25 11
-45 1z m55 -41 c0 -52 -63 -62 -73 -12 -7 33 6 47 40 44 29 -3 33 -7 33 -32z"/>
<path d="M373 215 c-10 -10 -9 -16 1 -24 10 -9 15 -8 19 2 8 22 -6 37 -20 22z"/>
</g>
</svg>
