<svg version="1.2" baseProfile="tiny-ps" xmlns="http://www.w3.org/2000/svg" viewBox="0 0 60 60" width="60" height="60">
	<title>Сгруппировать 569</title>
	<style>
		tspan { white-space:pre }
		.shp0 { fill: #0f1d5b } 
	</style>
	<g id="Сгруппировать 569">
		<g id="Сгруппировать 354">
			<g id="Layer 1-2">
				<path id="Контур 328" fill-rule="evenodd" class="shp0" d="M41.89 39.24C41.89 42.42 39.31 45 36.13 45C32.95 45 30.37 42.42 30.36 39.24C30.36 36.06 32.94 33.48 36.12 33.48C39.3 33.48 41.88 36.06 41.89 39.24ZM40.61 39.24C40.61 36.76 38.61 34.75 36.13 34.75C33.65 34.75 31.64 36.76 31.64 39.24C31.63 41.72 33.64 43.73 36.12 43.73C38.6 43.73 40.61 41.72 40.61 39.24ZM39.01 39.24C39.01 39.59 38.73 39.88 38.38 39.88L36.76 39.88L36.76 41.5C36.76 41.85 36.47 42.13 36.12 42.13C35.77 42.13 35.49 41.85 35.49 41.5L35.49 39.88L33.86 39.88C33.51 39.88 33.23 39.59 33.23 39.24C33.23 38.89 33.51 38.6 33.86 38.6L35.49 38.6L35.49 36.98C35.49 36.63 35.77 36.35 36.12 36.35C36.47 36.35 36.76 36.63 36.76 36.98L36.76 38.6L38.38 38.6C38.73 38.6 39.02 38.88 39.02 39.24L39.02 39.24L39.01 39.24ZM30.31 44.28C30.31 44.63 30.03 44.92 29.68 44.92L18 44.92L18 16.27C18 15.57 18.57 15 19.27 15L35.49 15C36.19 15 36.76 15.57 36.76 16.27L36.76 31.53C36.76 31.88 36.47 32.17 36.12 32.17C35.77 32.17 35.49 31.88 35.49 31.53L35.49 16.27L19.27 16.27L19.27 43.65L29.68 43.65C30.03 43.65 30.31 43.93 30.31 44.28ZM33.33 24.98L21.43 24.98L21.43 18.5L33.33 18.5L33.33 24.98ZM22.7 23.71L26.74 23.71L26.74 19.77L22.7 19.77L22.7 23.71ZM32.06 19.77L28.01 19.77L28.01 23.71L32.06 23.71L32.06 19.77ZM33.33 32.7L21.43 32.7L21.43 26.23L33.33 26.23L33.33 32.7ZM22.7 31.42L26.74 31.42L26.74 27.5L22.7 27.5L22.7 31.42ZM32.06 27.49L28.01 27.49L28.01 31.42L32.06 31.42L32.06 27.49ZM28.01 35.21L28.01 39.16L28.99 39.16C29.34 39.16 29.62 39.45 29.62 39.8C29.62 40.15 29.34 40.43 28.99 40.43L21.43 40.43L21.43 33.94L30.28 33.94C30.64 33.94 30.92 34.23 30.92 34.58C30.92 34.93 30.64 35.21 30.28 35.21L28.01 35.21ZM26.74 35.21L22.7 35.21L22.7 39.16L26.74 39.16L26.74 35.21Z" />
			</g>
		</g>
	</g>
</svg>